<svg width="312" height="464" viewBox="0 0 312 464" fill="none" xmlns="http://www.w3.org/2000/svg">
<g filter="url(#filter0_d_24_756)">
<path d="M161.664 67.6191C170.223 148.311 222.849 212.998 291.285 226.283L300.128 228L291.285 229.717C222.849 243.002 170.223 307.689 161.664 388.381L156 441.782L150.336 388.381C141.777 307.689 89.151 243.002 20.7148 229.717L11.8711 228L20.7148 226.283C89.151 212.998 141.777 148.311 150.336 67.6191L156 14.2168L161.664 67.6191Z" fill="#CC0A19" fill-opacity="0.47" stroke="#CC0A19" stroke-width="3"/>
<path d="M156 87.5393L161.245 129.099C167.479 178.497 205.782 217.944 255.371 226.035L267.414 228L255.371 229.965C205.782 238.056 167.479 277.503 161.245 326.901L156 368.461L150.755 326.901C144.521 277.503 106.218 238.056 56.6289 229.965L44.5864 228L56.6289 226.035C106.218 217.944 144.521 178.497 150.755 129.099L156 87.5393Z" fill="#CC0A19" fill-opacity="0.47"/>
<path d="M131.383 220.352L124.711 236H122.503L129.271 220.568H120.007V218.696H131.383V220.352ZM144.968 220.544H136.544V226.016C136.912 225.504 137.456 225.088 138.176 224.768C138.896 224.432 139.672 224.264 140.504 224.264C141.832 224.264 142.912 224.544 143.744 225.104C144.576 225.648 145.168 226.36 145.52 227.24C145.888 228.104 146.072 229.024 146.072 230C146.072 231.152 145.856 232.184 145.424 233.096C144.992 234.008 144.328 234.728 143.432 235.256C142.552 235.784 141.456 236.048 140.144 236.048C138.464 236.048 137.104 235.616 136.064 234.752C135.024 233.888 134.392 232.736 134.168 231.296H136.304C136.512 232.208 136.952 232.92 137.624 233.432C138.296 233.944 139.144 234.2 140.168 234.2C141.432 234.2 142.384 233.824 143.024 233.072C143.664 232.304 143.984 231.296 143.984 230.048C143.984 228.8 143.664 227.84 143.024 227.168C142.384 226.48 141.44 226.136 140.192 226.136C139.344 226.136 138.6 226.344 137.96 226.76C137.336 227.16 136.88 227.712 136.592 228.416H134.528V218.624H144.968V220.544ZM158.117 225.272C158.549 224.52 159.189 223.896 160.037 223.4C160.901 222.888 161.901 222.632 163.037 222.632C164.205 222.632 165.261 222.912 166.205 223.472C167.165 224.032 167.917 224.824 168.461 225.848C169.005 226.856 169.277 228.032 169.277 229.376C169.277 230.704 169.005 231.888 168.461 232.928C167.917 233.968 167.165 234.776 166.205 235.352C165.261 235.928 164.205 236.216 163.037 236.216C161.917 236.216 160.925 235.968 160.061 235.472C159.213 234.96 158.565 234.328 158.117 233.576V242.24H155.933V222.848H158.117V225.272ZM167.045 229.376C167.045 228.384 166.845 227.52 166.445 226.784C166.045 226.048 165.501 225.488 164.813 225.104C164.141 224.72 163.397 224.528 162.581 224.528C161.781 224.528 161.037 224.728 160.349 225.128C159.677 225.512 159.133 226.08 158.717 226.832C158.317 227.568 158.117 228.424 158.117 229.4C158.117 230.392 158.317 231.264 158.717 232.016C159.133 232.752 159.677 233.32 160.349 233.72C161.037 234.104 161.781 234.296 162.581 234.296C163.397 234.296 164.141 234.104 164.813 233.72C165.501 233.32 166.045 232.752 166.445 232.016C166.845 231.264 167.045 230.384 167.045 229.376ZM174.916 224.648V232.4C174.916 233.04 175.052 233.496 175.324 233.768C175.596 234.024 176.068 234.152 176.74 234.152H178.348V236H176.38C175.164 236 174.252 235.72 173.644 235.16C173.036 234.6 172.732 233.68 172.732 232.4V224.648H171.028V222.848H172.732V219.536H174.916V222.848H178.348V224.648H174.916ZM185.75 236.216C184.742 236.216 183.838 236.048 183.038 235.712C182.238 235.36 181.606 234.88 181.142 234.272C180.678 233.648 180.422 232.936 180.374 232.136H182.63C182.694 232.792 182.998 233.328 183.542 233.744C184.102 234.16 184.83 234.368 185.726 234.368C186.558 234.368 187.214 234.184 187.694 233.816C188.174 233.448 188.414 232.984 188.414 232.424C188.414 231.848 188.158 231.424 187.646 231.152C187.134 230.864 186.342 230.584 185.27 230.312C184.294 230.056 183.494 229.8 182.87 229.544C182.262 229.272 181.734 228.88 181.286 228.368C180.854 227.84 180.638 227.152 180.638 226.304C180.638 225.632 180.838 225.016 181.238 224.456C181.638 223.896 182.206 223.456 182.942 223.136C183.678 222.8 184.518 222.632 185.462 222.632C186.918 222.632 188.094 223 188.99 223.736C189.886 224.472 190.366 225.48 190.43 226.76H188.246C188.198 226.072 187.918 225.52 187.406 225.104C186.91 224.688 186.238 224.48 185.39 224.48C184.606 224.48 183.982 224.648 183.518 224.984C183.054 225.32 182.822 225.76 182.822 226.304C182.822 226.736 182.958 227.096 183.23 227.384C183.518 227.656 183.87 227.88 184.286 228.056C184.718 228.216 185.31 228.4 186.062 228.608C187.006 228.864 187.774 229.12 188.366 229.376C188.958 229.616 189.462 229.984 189.878 230.48C190.31 230.976 190.534 231.624 190.55 232.424C190.55 233.144 190.35 233.792 189.95 234.368C189.55 234.944 188.982 235.4 188.246 235.736C187.526 236.056 186.694 236.216 185.75 236.216Z" fill="#030303"/>
</g>
<defs>
<filter id="filter0_d_24_756" x="0" y="0" width="312" height="464" filterUnits="userSpaceOnUse" color-interpolation-filters="sRGB">
<feFlood flood-opacity="0" result="BackgroundImageFix"/>
<feColorMatrix in="SourceAlpha" type="matrix" values="0 0 0 0 0 0 0 0 0 0 0 0 0 0 0 0 0 0 127 0" result="hardAlpha"/>
<feOffset dy="4"/>
<feGaussianBlur stdDeviation="2"/>
<feComposite in2="hardAlpha" operator="out"/>
<feColorMatrix type="matrix" values="0 0 0 0 0 0 0 0 0 0 0 0 0 0 0 0 0 0 0.25 0"/>
<feBlend mode="normal" in2="BackgroundImageFix" result="effect1_dropShadow_24_756"/>
<feBlend mode="normal" in="SourceGraphic" in2="effect1_dropShadow_24_756" result="shape"/>
</filter>
</defs>
</svg>
