<svg width="224" height="56" viewBox="0 0 224 56" fill="none" xmlns="http://www.w3.org/2000/svg">
<path d="M14.712 1.00801L9.04799 11.928V17.76H5.68799V11.928L-1.51768e-05 1.00801H3.79199L7.39198 8.66401L10.968 1.00801H14.712ZM22.6538 17.976C21.3738 17.976 20.2218 17.696 19.1978 17.136C18.1738 16.56 17.3658 15.752 16.7738 14.712C16.1978 13.672 15.9098 12.472 15.9098 11.112C15.9098 9.75201 16.2058 8.55201 16.7978 7.51201C17.4058 6.47201 18.2298 5.67201 19.2698 5.11201C20.3098 4.53601 21.4698 4.24801 22.7498 4.24801C24.0298 4.24801 25.1898 4.53601 26.2298 5.11201C27.2698 5.67201 28.0858 6.47201 28.6778 7.51201C29.2858 8.55201 29.5898 9.75201 29.5898 11.112C29.5898 12.472 29.2778 13.672 28.6538 14.712C28.0458 15.752 27.2138 16.56 26.1578 17.136C25.1178 17.696 23.9498 17.976 22.6538 17.976ZM22.6538 15.048C23.2618 15.048 23.8298 14.904 24.3578 14.616C24.9018 14.312 25.3338 13.864 25.6538 13.272C25.9738 12.68 26.1338 11.96 26.1338 11.112C26.1338 9.84801 25.7978 8.88001 25.1258 8.20801C24.4698 7.52001 23.6618 7.17601 22.7018 7.17601C21.7418 7.17601 20.9338 7.52001 20.2778 8.20801C19.6378 8.88001 19.3178 9.84801 19.3178 11.112C19.3178 12.376 19.6298 13.352 20.2538 14.04C20.8938 14.712 21.6938 15.048 22.6538 15.048ZM44.7065 4.46401V17.76H41.3225V16.08C40.8905 16.656 40.3225 17.112 39.6185 17.448C38.9305 17.768 38.1785 17.928 37.3625 17.928C36.3225 17.928 35.4025 17.712 34.6025 17.28C33.8025 16.832 33.1705 16.184 32.7065 15.336C32.2585 14.472 32.0345 13.448 32.0345 12.264V4.46401H35.3945V11.784C35.3945 12.84 35.6585 13.656 36.1865 14.232C36.7145 14.792 37.4345 15.072 38.3465 15.072C39.2745 15.072 40.0025 14.792 40.5305 14.232C41.0585 13.656 41.3225 12.84 41.3225 11.784V4.46401H44.7065ZM61.4284 4.27201C62.4364 4.27201 63.3324 4.49601 64.1164 4.94401C64.9004 5.37601 65.5084 6.02401 65.9404 6.88801C66.3884 7.73601 66.6124 8.76001 66.6124 9.96001V17.76H63.2524V10.416C63.2524 9.36001 62.9884 8.55201 62.4604 7.99201C61.9324 7.41601 61.2124 7.12801 60.3004 7.12801C59.3724 7.12801 58.6364 7.41601 58.0924 7.99201C57.5644 8.55201 57.3004 9.36001 57.3004 10.416V17.76H53.9404V9.53674e-06H57.3004V6.12001C57.7324 5.54401 58.3084 5.09601 59.0284 4.77601C59.7484 4.44001 60.5484 4.27201 61.4284 4.27201ZM69.0436 11.064C69.0436 9.72001 69.3076 8.52801 69.8356 7.48801C70.3796 6.44801 71.1076 5.64801 72.0196 5.08801C72.9476 4.52801 73.9796 4.24801 75.1156 4.24801C76.1076 4.24801 76.9716 4.44801 77.7076 4.84801C78.4596 5.24801 79.0596 5.75201 79.5076 6.36001V4.46401H82.8916V17.76H79.5076V15.816C79.0756 16.44 78.4756 16.96 77.7076 17.376C76.9556 17.776 76.0836 17.976 75.0916 17.976C73.9716 17.976 72.9476 17.688 72.0196 17.112C71.1076 16.536 70.3796 15.728 69.8356 14.688C69.3076 13.632 69.0436 12.424 69.0436 11.064ZM79.5076 11.112C79.5076 10.296 79.3476 9.60001 79.0276 9.02401C78.7076 8.43201 78.2756 7.98401 77.7316 7.68001C77.1876 7.36001 76.6036 7.20001 75.9796 7.20001C75.3556 7.20001 74.7796 7.35201 74.2516 7.65601C73.7236 7.96001 73.2916 8.40801 72.9556 9.00001C72.6356 9.57601 72.4756 10.264 72.4756 11.064C72.4756 11.864 72.6356 12.568 72.9556 13.176C73.2916 13.768 73.7236 14.224 74.2516 14.544C74.7956 14.864 75.3716 15.024 75.9796 15.024C76.6036 15.024 77.1876 14.872 77.7316 14.568C78.2756 14.248 78.7076 13.8 79.0276 13.224C79.3476 12.632 79.5076 11.928 79.5076 11.112ZM91.8172 14.664L95.1772 4.46401H98.7532L93.8332 17.76H89.7532L84.8572 4.46401H88.4572L91.8172 14.664ZM113.1 10.824C113.1 11.304 113.068 11.736 113.004 12.12H103.284C103.364 13.08 103.7 13.832 104.292 14.376C104.884 14.92 105.612 15.192 106.476 15.192C107.724 15.192 108.612 14.656 109.14 13.584H112.764C112.38 14.864 111.644 15.92 110.556 16.752C109.468 17.568 108.132 17.976 106.548 17.976C105.268 17.976 104.116 17.696 103.092 17.136C102.084 16.56 101.292 15.752 100.716 14.712C100.156 13.672 99.8764 12.472 99.8764 11.112C99.8764 9.73601 100.156 8.52801 100.716 7.48801C101.276 6.44801 102.06 5.64801 103.068 5.08801C104.076 4.52801 105.236 4.24801 106.548 4.24801C107.812 4.24801 108.94 4.52001 109.932 5.06401C110.94 5.60801 111.716 6.38401 112.26 7.39201C112.82 8.38401 113.1 9.52801 113.1 10.824ZM109.62 9.86401C109.604 9.00001 109.292 8.31201 108.684 7.80001C108.076 7.27201 107.332 7.00801 106.452 7.00801C105.62 7.00801 104.916 7.26401 104.34 7.77601C103.78 8.27201 103.436 8.96801 103.308 9.86401H109.62ZM167.508 11.064C167.508 9.72001 167.772 8.52801 168.3 7.48801C168.844 6.44801 169.572 5.64801 170.484 5.08801C171.412 4.52801 172.444 4.24801 173.58 4.24801C174.572 4.24801 175.436 4.44801 176.172 4.84801C176.924 5.24801 177.524 5.75201 177.972 6.36001V4.46401H181.356V17.76H177.972V15.816C177.54 16.44 176.94 16.96 176.172 17.376C175.42 17.776 174.548 17.976 173.556 17.976C172.436 17.976 171.412 17.688 170.484 17.112C169.572 16.536 168.844 15.728 168.3 14.688C167.772 13.632 167.508 12.424 167.508 11.064ZM177.972 11.112C177.972 10.296 177.812 9.60001 177.492 9.02401C177.172 8.43201 176.74 7.98401 176.196 7.68001C175.652 7.36001 175.068 7.20001 174.444 7.20001C173.82 7.20001 173.244 7.35201 172.716 7.65601C172.188 7.96001 171.756 8.40801 171.42 9.00001C171.1 9.57601 170.94 10.264 170.94 11.064C170.94 11.864 171.1 12.568 171.42 13.176C171.756 13.768 172.188 14.224 172.716 14.544C173.26 14.864 173.836 15.024 174.444 15.024C175.068 15.024 175.652 14.872 176.196 14.568C176.74 14.248 177.172 13.8 177.492 13.224C177.812 12.632 177.972 11.928 177.972 11.112ZM197.289 4.46401V17.76H193.905V16.08C193.473 16.656 192.905 17.112 192.201 17.448C191.513 17.768 190.761 17.928 189.945 17.928C188.905 17.928 187.985 17.712 187.185 17.28C186.385 16.832 185.753 16.184 185.289 15.336C184.841 14.472 184.617 13.448 184.617 12.264V4.46401H187.977V11.784C187.977 12.84 188.241 13.656 188.769 14.232C189.297 14.792 190.017 15.072 190.929 15.072C191.857 15.072 192.585 14.792 193.113 14.232C193.641 13.656 193.905 12.84 193.905 11.784V4.46401H197.289ZM204.064 6.52801C204.496 5.82401 205.056 5.27201 205.744 4.87201C206.448 4.47201 207.248 4.27201 208.144 4.27201V7.80001H207.256C206.2 7.80001 205.4 8.04801 204.856 8.54401C204.328 9.04001 204.064 9.90401 204.064 11.136V17.76H200.704V4.46401H204.064V6.52801ZM209.644 11.064C209.644 9.72001 209.908 8.52801 210.436 7.48801C210.98 6.44801 211.708 5.64801 212.62 5.08801C213.548 4.52801 214.58 4.24801 215.716 4.24801C216.708 4.24801 217.572 4.44801 218.308 4.84801C219.06 5.24801 219.66 5.75201 220.108 6.36001V4.46401H223.492V17.76H220.108V15.816C219.676 16.44 219.076 16.96 218.308 17.376C217.556 17.776 216.684 17.976 215.692 17.976C214.572 17.976 213.548 17.688 212.62 17.112C211.708 16.536 210.98 15.728 210.436 14.688C209.908 13.632 209.644 12.424 209.644 11.064ZM220.108 11.112C220.108 10.296 219.948 9.60001 219.628 9.02401C219.308 8.43201 218.876 7.98401 218.332 7.68001C217.788 7.36001 217.204 7.20001 216.58 7.20001C215.956 7.20001 215.38 7.35201 214.852 7.65601C214.324 7.96001 213.892 8.40801 213.556 9.00001C213.236 9.57601 213.076 10.264 213.076 11.064C213.076 11.864 213.236 12.568 213.556 13.176C213.892 13.768 214.324 14.224 214.852 14.544C215.396 14.864 215.972 15.024 216.58 15.024C217.204 15.024 217.788 14.872 218.332 14.568C218.876 14.248 219.308 13.8 219.628 13.224C219.948 12.632 220.108 11.928 220.108 11.112ZM40.8296 43.84C40.9576 44.544 41.2456 45.088 41.6936 45.472C42.1576 45.84 42.7736 46.024 43.5416 46.024C44.5336 46.024 45.2536 45.616 45.7016 44.8C46.1496 43.968 46.3736 42.576 46.3736 40.624C46.0056 41.136 45.4856 41.536 44.8136 41.824C44.1576 42.112 43.4456 42.256 42.6776 42.256C41.6536 42.256 40.7256 42.048 39.8936 41.632C39.0776 41.2 38.4296 40.568 37.9496 39.736C37.4696 38.888 37.2296 37.864 37.2296 36.664C37.2296 34.888 37.7576 33.48 38.8136 32.44C39.8696 31.384 41.3096 30.856 43.1336 30.856C45.4056 30.856 47.0056 31.584 47.9336 33.04C48.8776 34.496 49.3496 36.688 49.3496 39.616C49.3496 41.696 49.1656 43.4 48.7976 44.728C48.4456 46.056 47.8296 47.064 46.9496 47.752C46.0856 48.44 44.9016 48.784 43.3976 48.784C42.2136 48.784 41.2056 48.56 40.3736 48.112C39.5416 47.648 38.9016 47.048 38.4536 46.312C38.0216 45.56 37.7736 44.736 37.7096 43.84H40.8296ZM43.3736 39.52C44.2056 39.52 44.8616 39.264 45.3416 38.752C45.8216 38.24 46.0616 37.552 46.0616 36.688C46.0616 35.744 45.8056 35.016 45.2936 34.504C44.7976 33.976 44.1176 33.712 43.2536 33.712C42.3896 33.712 41.7016 33.984 41.1896 34.528C40.6936 35.056 40.4456 35.76 40.4456 36.64C40.4456 37.488 40.6856 38.184 41.1656 38.728C41.6616 39.256 42.3976 39.52 43.3736 39.52ZM55.953 43.84C56.081 44.544 56.369 45.088 56.817 45.472C57.281 45.84 57.897 46.024 58.665 46.024C59.657 46.024 60.377 45.616 60.825 44.8C61.273 43.968 61.497 42.576 61.497 40.624C61.129 41.136 60.609 41.536 59.937 41.824C59.281 42.112 58.569 42.256 57.801 42.256C56.777 42.256 55.849 42.048 55.017 41.632C54.201 41.2 53.553 40.568 53.073 39.736C52.593 38.888 52.353 37.864 52.353 36.664C52.353 34.888 52.881 33.48 53.937 32.44C54.993 31.384 56.433 30.856 58.257 30.856C60.529 30.856 62.129 31.584 63.057 33.04C64.001 34.496 64.473 36.688 64.473 39.616C64.473 41.696 64.289 43.4 63.921 44.728C63.569 46.056 62.953 47.064 62.073 47.752C61.209 48.44 60.025 48.784 58.521 48.784C57.337 48.784 56.329 48.56 55.497 48.112C54.665 47.648 54.025 47.048 53.577 46.312C53.145 45.56 52.897 44.736 52.833 43.84H55.953ZM58.497 39.52C59.329 39.52 59.985 39.264 60.465 38.752C60.945 38.24 61.185 37.552 61.185 36.688C61.185 35.744 60.929 35.016 60.417 34.504C59.921 33.976 59.241 33.712 58.377 33.712C57.513 33.712 56.825 33.984 56.313 34.528C55.817 35.056 55.569 35.76 55.569 36.64C55.569 37.488 55.809 38.184 56.289 38.728C56.785 39.256 57.521 39.52 58.497 39.52ZM69.0605 48.928C68.4525 48.928 67.9485 48.744 67.5485 48.376C67.1645 47.992 66.9725 47.52 66.9725 46.96C66.9725 46.4 67.1645 45.936 67.5485 45.568C67.9485 45.184 68.4525 44.992 69.0605 44.992C69.6525 44.992 70.1405 45.184 70.5245 45.568C70.9085 45.936 71.1005 46.4 71.1005 46.96C71.1005 47.52 70.9085 47.992 70.5245 48.376C70.1405 48.744 69.6525 48.928 69.0605 48.928ZM77.4108 43.84C77.5388 44.544 77.8268 45.088 78.2748 45.472C78.7388 45.84 79.3548 46.024 80.1228 46.024C81.1148 46.024 81.8348 45.616 82.2828 44.8C82.7308 43.968 82.9548 42.576 82.9548 40.624C82.5868 41.136 82.0668 41.536 81.3948 41.824C80.7388 42.112 80.0268 42.256 79.2588 42.256C78.2348 42.256 77.3068 42.048 76.4748 41.632C75.6588 41.2 75.0108 40.568 74.5308 39.736C74.0508 38.888 73.8108 37.864 73.8108 36.664C73.8108 34.888 74.3388 33.48 75.3948 32.44C76.4508 31.384 77.8908 30.856 79.7148 30.856C81.9868 30.856 83.5868 31.584 84.5148 33.04C85.4588 34.496 85.9308 36.688 85.9308 39.616C85.9308 41.696 85.7468 43.4 85.3788 44.728C85.0268 46.056 84.4108 47.064 83.5308 47.752C82.6668 48.44 81.4828 48.784 79.9788 48.784C78.7948 48.784 77.7868 48.56 76.9548 48.112C76.1228 47.648 75.4828 47.048 75.0348 46.312C74.6028 45.56 74.3548 44.736 74.2908 43.84H77.4108ZM79.9548 39.52C80.7868 39.52 81.4428 39.264 81.9228 38.752C82.4028 38.24 82.6428 37.552 82.6428 36.688C82.6428 35.744 82.3868 35.016 81.8748 34.504C81.3788 33.976 80.6988 33.712 79.8348 33.712C78.9708 33.712 78.2828 33.984 77.7708 34.528C77.2748 35.056 77.0268 35.76 77.0268 36.64C77.0268 37.488 77.2668 38.184 77.7468 38.728C78.2428 39.256 78.9788 39.52 79.9548 39.52ZM92.5343 43.84C92.6623 44.544 92.9503 45.088 93.3983 45.472C93.8623 45.84 94.4783 46.024 95.2463 46.024C96.2383 46.024 96.9583 45.616 97.4063 44.8C97.8543 43.968 98.0783 42.576 98.0783 40.624C97.7103 41.136 97.1903 41.536 96.5183 41.824C95.8623 42.112 95.1503 42.256 94.3823 42.256C93.3583 42.256 92.4303 42.048 91.5983 41.632C90.7823 41.2 90.1343 40.568 89.6543 39.736C89.1743 38.888 88.9343 37.864 88.9343 36.664C88.9343 34.888 89.4623 33.48 90.5183 32.44C91.5743 31.384 93.0143 30.856 94.8383 30.856C97.1103 30.856 98.7103 31.584 99.6383 33.04C100.582 34.496 101.054 36.688 101.054 39.616C101.054 41.696 100.87 43.4 100.502 44.728C100.15 46.056 99.5343 47.064 98.6543 47.752C97.7903 48.44 96.6063 48.784 95.1023 48.784C93.9183 48.784 92.9103 48.56 92.0783 48.112C91.2463 47.648 90.6063 47.048 90.1583 46.312C89.7263 45.56 89.4783 44.736 89.4143 43.84H92.5343ZM95.0783 39.52C95.9103 39.52 96.5663 39.264 97.0463 38.752C97.5263 38.24 97.7663 37.552 97.7663 36.688C97.7663 35.744 97.5103 35.016 96.9983 34.504C96.5023 33.976 95.8223 33.712 94.9583 33.712C94.0943 33.712 93.4063 33.984 92.8943 34.528C92.3983 35.056 92.1503 35.76 92.1503 36.64C92.1503 37.488 92.3903 38.184 92.8703 38.728C93.3663 39.256 94.1023 39.52 95.0783 39.52ZM103.386 35.56C103.386 34.344 103.738 33.392 104.442 32.704C105.162 32.016 106.082 31.672 107.202 31.672C108.322 31.672 109.234 32.016 109.938 32.704C110.658 33.392 111.018 34.344 111.018 35.56C111.018 36.792 110.658 37.752 109.938 38.44C109.234 39.128 108.322 39.472 107.202 39.472C106.082 39.472 105.162 39.128 104.442 38.44C103.738 37.752 103.386 36.792 103.386 35.56ZM118.794 31.96L109.362 48.76H106.098L115.506 31.96H118.794ZM107.178 33.688C106.298 33.688 105.858 34.312 105.858 35.56C105.858 36.824 106.298 37.456 107.178 37.456C107.61 37.456 107.946 37.304 108.186 37C108.426 36.68 108.546 36.2 108.546 35.56C108.546 34.312 108.09 33.688 107.178 33.688ZM113.922 45.136C113.922 43.904 114.274 42.952 114.978 42.28C115.698 41.592 116.618 41.248 117.738 41.248C118.858 41.248 119.762 41.592 120.45 42.28C121.154 42.952 121.506 43.904 121.506 45.136C121.506 46.368 121.154 47.328 120.45 48.016C119.762 48.704 118.858 49.048 117.738 49.048C116.602 49.048 115.682 48.704 114.978 48.016C114.274 47.328 113.922 46.368 113.922 45.136ZM117.714 43.264C116.802 43.264 116.346 43.888 116.346 45.136C116.346 46.4 116.802 47.032 117.714 47.032C118.61 47.032 119.058 46.4 119.058 45.136C119.058 43.888 118.61 43.264 117.714 43.264ZM133.331 37.528C133.763 36.824 134.323 36.272 135.011 35.872C135.715 35.472 136.515 35.272 137.411 35.272V38.8H136.523C135.467 38.8 134.667 39.048 134.123 39.544C133.595 40.04 133.331 40.904 133.331 42.136V48.76H129.971V35.464H133.331V37.528ZM138.91 42.064C138.91 40.72 139.174 39.528 139.702 38.488C140.246 37.448 140.974 36.648 141.886 36.088C142.814 35.528 143.846 35.248 144.982 35.248C145.974 35.248 146.838 35.448 147.574 35.848C148.326 36.248 148.926 36.752 149.374 37.36V35.464H152.758V48.76H149.374V46.816C148.942 47.44 148.342 47.96 147.574 48.376C146.822 48.776 145.95 48.976 144.958 48.976C143.838 48.976 142.814 48.688 141.886 48.112C140.974 47.536 140.246 46.728 139.702 45.688C139.174 44.632 138.91 43.424 138.91 42.064ZM149.374 42.112C149.374 41.296 149.214 40.6 148.894 40.024C148.574 39.432 148.142 38.984 147.598 38.68C147.054 38.36 146.47 38.2 145.846 38.2C145.222 38.2 144.646 38.352 144.118 38.656C143.59 38.96 143.158 39.408 142.822 40C142.502 40.576 142.342 41.264 142.342 42.064C142.342 42.864 142.502 43.568 142.822 44.176C143.158 44.768 143.59 45.224 144.118 45.544C144.662 45.864 145.238 46.024 145.846 46.024C146.47 46.024 147.054 45.872 147.598 45.568C148.142 45.248 148.574 44.8 148.894 44.224C149.214 43.632 149.374 42.928 149.374 42.112ZM159.5 37.528C159.932 36.824 160.492 36.272 161.18 35.872C161.884 35.472 162.684 35.272 163.58 35.272V38.8H162.692C161.636 38.8 160.836 39.048 160.292 39.544C159.764 40.04 159.5 40.904 159.5 42.136V48.76H156.14V35.464H159.5V37.528ZM167.647 33.88C167.055 33.88 166.559 33.696 166.159 33.328C165.775 32.944 165.583 32.472 165.583 31.912C165.583 31.352 165.775 30.888 166.159 30.52C166.559 30.136 167.055 29.944 167.647 29.944C168.239 29.944 168.727 30.136 169.111 30.52C169.511 30.888 169.711 31.352 169.711 31.912C169.711 32.472 169.511 32.944 169.111 33.328C168.727 33.696 168.239 33.88 167.647 33.88ZM169.303 35.464V48.76H165.943V35.464H169.303ZM176.634 38.224V44.656C176.634 45.104 176.738 45.432 176.946 45.64C177.17 45.832 177.538 45.928 178.05 45.928H179.61V48.76H177.498C174.666 48.76 173.25 47.384 173.25 44.632V38.224H171.666V35.464H173.25V32.176H176.634V35.464H179.61V38.224H176.634ZM194.847 35.464L186.615 55.048H183.039L185.919 48.424L180.591 35.464H184.359L187.791 44.752L191.271 35.464H194.847Z" fill="#030303"/>
<path d="M124.832 6.52801C125.264 5.82401 125.824 5.27201 126.512 4.87201C127.216 4.47201 128.016 4.27201 128.912 4.27201V7.80001H128.024C126.968 7.80001 126.168 8.04801 125.624 8.54401C125.096 9.04001 124.832 9.90401 124.832 11.136V17.76H121.472V4.46401H124.832V6.52801ZM143.635 10.824C143.635 11.304 143.603 11.736 143.539 12.12H133.819C133.899 13.08 134.235 13.832 134.827 14.376C135.419 14.92 136.147 15.192 137.011 15.192C138.259 15.192 139.147 14.656 139.675 13.584H143.299C142.915 14.864 142.179 15.92 141.091 16.752C140.003 17.568 138.667 17.976 137.083 17.976C135.803 17.976 134.651 17.696 133.627 17.136C132.619 16.56 131.827 15.752 131.251 14.712C130.691 13.672 130.411 12.472 130.411 11.112C130.411 9.73601 130.691 8.52801 131.251 7.48801C131.811 6.44801 132.595 5.64801 133.603 5.08801C134.611 4.52801 135.771 4.24801 137.083 4.24801C138.347 4.24801 139.475 4.52001 140.467 5.06401C141.475 5.60801 142.251 6.38401 142.795 7.39201C143.355 8.38401 143.635 9.52801 143.635 10.824ZM140.155 9.86401C140.139 9.00001 139.827 8.31201 139.219 7.80001C138.611 7.27201 137.867 7.00801 136.987 7.00801C136.155 7.00801 135.451 7.26401 134.875 7.77601C134.315 8.27201 133.971 8.96801 133.843 9.86401H140.155ZM145.323 11.064C145.323 9.72001 145.587 8.52801 146.115 7.48801C146.659 6.44801 147.395 5.64801 148.323 5.08801C149.251 4.52801 150.283 4.24801 151.419 4.24801C152.283 4.24801 153.107 4.44001 153.891 4.82401C154.675 5.19201 155.299 5.68801 155.763 6.31201V9.53674e-06H159.171V17.76H155.763V15.792C155.347 16.448 154.763 16.976 154.011 17.376C153.259 17.776 152.387 17.976 151.395 17.976C150.275 17.976 149.251 17.688 148.323 17.112C147.395 16.536 146.659 15.728 146.115 14.688C145.587 13.632 145.323 12.424 145.323 11.064ZM155.787 11.112C155.787 10.296 155.627 9.60001 155.307 9.02401C154.987 8.43201 154.555 7.98401 154.011 7.68001C153.467 7.36001 152.883 7.20001 152.259 7.20001C151.635 7.20001 151.059 7.35201 150.531 7.65601C150.003 7.96001 149.571 8.40801 149.235 9.00001C148.915 9.57601 148.755 10.264 148.755 11.064C148.755 11.864 148.915 12.568 149.235 13.176C149.571 13.768 150.003 14.224 150.531 14.544C151.075 14.864 151.651 15.024 152.259 15.024C152.883 15.024 153.467 14.872 154.011 14.568C154.555 14.248 154.987 13.8 155.307 13.224C155.627 12.632 155.787 11.928 155.787 11.112Z" fill="#CC0A19"/>
</svg>
